<?xml version="1.0" encoding="utf-8"?>
<!-- Generator: Adobe Illustrator 21.1.0, SVG Export Plug-In . SVG Version: 6.00 Build 0)  -->
<svg version="1.1" id="Layer_1" xmlns="http://www.w3.org/2000/svg" xmlns:xlink="http://www.w3.org/1999/xlink" x="0px" y="0px"
	 viewBox="0 0 197 197" style="enable-background:new 0 0 197 197;" xml:space="preserve">
<style type="text/css">
	.st0{fill:#E3000B;}
	.st1{fill:#FFFFFF;}
	.st2{fill:#EDC5C5;}
</style>
<circle class="st0" cx="98.5" cy="98.5" r="98.5"/>
<path class="st1" d="M51.5,39.6c0,0,7-8.8,20.2-9.9C90.1,28.1,96,31.5,96,31.5s2,13.4,4,20.6c1.9,6.8,8.8,15.1,11,16.6
	s10.5,5.5,13.1,8.1s10.1,5.9,12.3,8.5s5.5,9.2,7.4,11.8c1.8,2.6,4.6,6.3,8.5,12.9c0.9,1.5,1.1,4.4-2.2,5.9s-7,1.5-9.6,0
	c-3.8-2.2-5.9-6.3-8.5-8.1c-2.6-1.8-4.2-4.4-7.4-2.2c-2.2,1.5-2.3,4.9-1.8,8.1c0.7,4.5,2.9,11.8,3.7,13.6c0.7,1.8,5.2,9-1.5,12.6
	c-2.5,1.4-6.7,0.1-8.6-3.8c-3.3-6.7-2.8-8.5-5.9-7.2c-2.7,1.1-2.7,6.3-2.4,12.8c0.1,1.4-1.7,7.4-6,7.4c-5.8,0-5.6-6.4-5.6-9.2
	s0-6.4-0.3-7.4c-0.4-0.9-0.7-1.7-2-2c-1.3-0.4-3.3,0-4.6,4.2s-3.9,11-8.4,9.8c-1.6-0.5-5.6-1.9-4.9-7.3c0.4-3,3-12.8,1.9-13.1
	c-1.1-0.4-2.7-2-7,2.8c-2.7,3-5.1,6.7-7.5,5.3c-6.8-3.7,0.7-14.7,1.5-15.8c0.7-1.1,1.6-2.9,1.3-5.7c-0.9-7.9-0.2-22.6,1.1-25.9
	c1-2.4,4.4-4.7,1.3-10.6C68.4,73.3,51.6,44.1,51.6,42S51.5,39.6,51.5,39.6z"/>
<g>
	<path class="st2" d="M72.3,136.5c0.1-1,0.5-2.6,0.9-4.4c0.1-0.6,0.3-1.4,0.5-2.2c-0.3,0.3-0.6,0.7-0.8,1c-1.9,2.2-4.5,5.2-7.7,5.4
		c0,0-5.5,14.3-5.8,15.9c-0.4,1.7-1.8,7,2.6,8.3s7.2-5,7.2-5s5.3-10,5.3-10.9l0,0C72.5,142.5,71.8,139.7,72.3,136.5z"/>
	<path class="st2" d="M62.4,110.9c-0.4-3.9-0.5-9.5-0.3-14.7l-0.3,0.1c0,0-1.3,0.6-4.1,2.4s-5.2,5.5-7.2,9.6s-3.9,6.8-5.2,8.8
		s-5.7,6.8-5.7,6.8l-1.7,1.7c0,0,1.5,4.4,3.3,5.2c3.9,1.7,5.6,1.5,8.8,0c3.7-1.7,5.5-4.9,6.4-6.8"/>
	<path class="st2" d="M112.9,137.8c-0.3-0.7-0.6-1.3-0.9-1.8c0,1.3,0,3.1,0.1,5.3c0.1,2-1,5.5-3,8c0.6,2.7,4.7,15.4,4.7,15.4
		s2.1,7,7,6.3c6.1-0.9,3.8-8.3,3.8-8.3l-4.7-18.8C119.9,143.9,114.3,140.7,112.9,137.8z"/>
	<path class="st2" d="M113.3,65.4c0.6,0.4,1.9,1.1,3.3,1.9c4.7,2.6,8.4,4.7,10.4,6.7c0.1,0.1,0.2,0.1,0.3,0.2c0,0,19.2-26,19.2-36.1
		c0-5.1-14.2-7.4-18.2-8.1c-4.1-0.7-20.8-0.5-20.8-0.5c-4.2,0-4.1,3.3-4.3,5.1c-0.1,1.1-1.1,8.5-1.1,8.5c0.6,2.9,1.2,5.8,1.8,8
		C105.5,56.7,111.7,64.3,113.3,65.4z"/>
	<path class="st2" d="M132.1,113.5c-0.9-1-1.7-2-2.4-2.5c-0.6-0.5-1.2-0.9-1.7-1.4c-0.3-0.3-0.7-0.6-1-0.8c-0.2,0.2-0.6,1.4-0.2,4.2
		c0.6,4.1,2.8,11,3.4,12.7c0.1,0.2,4.1,9.1,4.1,9.1c0.8,1.8,2,3.7,3.2,4.7c2.8,2,4.9,1.7,7.2,0c2-1.5,1.1-4.8,0.9-5.9
		c-0.1-0.4-0.9-2-2.1-4.1l-5-10.3C135.7,117.6,133.7,115.3,132.1,113.5z"/>
	<path class="st2" d="M95.6,150.4c-3.1-3.1-3.1-7.9-3.1-10.5c0,0,0-1.3,0-1.7c-0.5,1.3-2.1,4.2-2.3,4.9c-1,1.7-2.2,3-3.4,3.9
		c-0.5,0.3-1,0.6-1.3,0.8c-0.1,0.1-0.2,0.1-0.4,0.2l0,0l-0.7,19.9c0,0,0,6.5,4.9,6.8c4.5,0.3,5.1-2.3,5.4-5.9
		c0.7-6.9,1.8-17.9,1.8-17.9S95.9,150.7,95.6,150.4z"/>
</g>
</svg>
