<?xml version="1.0" encoding="utf-8"?>
<!-- Generator: Adobe Illustrator 21.1.0, SVG Export Plug-In . SVG Version: 6.00 Build 0)  -->
<svg version="1.1" id="Layer_1" xmlns="http://www.w3.org/2000/svg" xmlns:xlink="http://www.w3.org/1999/xlink" x="0px" y="0px"
	 viewBox="0 0 206 327" style="enable-background:new 0 0 206 327;" xml:space="preserve">
<style type="text/css">
	.st0{fill:none;stroke:#FFFFFF;stroke-miterlimit:10;}
	.st1{enable-background:new    ;}
	.st2{fill:#FFFFFF;}
</style>
<path class="st0" d="M191.3,326.5H14.7c-7.8,0-14.2-6.4-14.2-14.2V14.7c0-7.8,6.4-14.2,14.2-14.2h176.7c7.8,0,14.2,6.4,14.2,14.2
	v297.7C205.5,320.1,199.1,326.5,191.3,326.5z"/>
<g class="st1">
	<path class="st2" d="M94.6,184.3h1.3v8l0,0l2.6-4.3h1.6l-2.3,3.6l2.6,5.6h-1.7l-1.8-4.3l-1.1,1.6v2.6h-1.2V184.3z"/>
	<path class="st2" d="M101.8,188h1.3v1l0,0c0.5-0.7,1.1-1.1,1.8-1.1c0.5,0,0.9,0.1,1.2,0.3s0.6,0.5,0.8,0.9c0.5-0.8,1.3-1.2,2.2-1.2
		c0.6,0,1.1,0.3,1.6,0.8s0.7,1.3,0.7,2.4v6.1h-1.3v-5.4c0-0.6-0.1-1.1-0.4-1.5c-0.3-0.3-0.6-0.5-1-0.5s-0.7,0.2-1,0.5
		s-0.4,0.8-0.4,1.5v5.4H106v-5.4c0-0.6-0.1-1.1-0.4-1.5c-0.3-0.3-0.6-0.5-1-0.5s-0.7,0.2-1,0.5s-0.4,0.8-0.4,1.5v5.4h-1.3V188H101.8
		z"/>
</g>
<line class="st0" x1="12.5" y1="249.5" x2="193.5" y2="249.5"/>
<line class="st0" x1="12.5" y1="176.5" x2="193.5" y2="176.5"/>
<g class="st1">
	<path class="st2" d="M58.8,17.7h5.9v2.6c0,1.3-0.6,2.4-1.7,3.2c-1.1,0.9-2.5,1.3-4.2,1.3c-1.3,0-2.4-0.3-3.3-0.7
		c-0.9-0.5-1.5-1-1.9-1.6c-0.1-0.2-0.2-0.4-0.3-0.6s-0.2-0.4-0.2-0.7c-0.1-0.5-0.2-1.5-0.2-3s0.1-2.5,0.2-3c0.1-0.5,0.3-0.9,0.6-1.2
		c0.4-0.6,1-1.1,1.9-1.6s2-0.7,3.3-0.7c1.6,0,2.9,0.4,3.9,1.1c1,0.7,1.6,1.6,1.9,2.7H62c-0.2-0.5-0.6-1-1.1-1.3
		c-0.6-0.3-1.2-0.5-2-0.5c-0.6,0-1.1,0.1-1.5,0.3s-0.8,0.4-1,0.7c-0.3,0.3-0.5,0.6-0.6,1.1c-0.1,0.5-0.2,1.3-0.2,2.6
		c0,1.3,0.1,2.1,0.2,2.6c0.1,0.4,0.3,0.8,0.6,1.1c0.3,0.3,0.6,0.5,1,0.6c0.4,0.2,0.9,0.3,1.5,0.3c1,0,1.8-0.3,2.4-0.8
		c0.6-0.5,1-1.1,1-1.9v-0.7h-3.4v-1.9H58.8z"/>
	<path class="st2" d="M78.6,21.8h-6.3L71,24.7h-2.7l6-12.8h2.1l6,12.8h-2.6L78.6,21.8z M77.9,20.1l-2.4-5.6l0,0L73,20.1H77.9z"/>
	<path class="st2" d="M86.7,11.9h6.5c1.4,0,2.5,0.3,3.4,0.8c1,0.6,1.6,1.5,1.6,2.7c0,1.7-1.1,2.9-3.2,3.6l3.8,5.7h-3l-3.4-5.5h-3.2
		v5.5h-2.5C86.7,24.7,86.7,11.9,86.7,11.9z M89.2,17.5H93c0.9,0,1.6-0.2,2.1-0.6s0.7-0.9,0.7-1.4c0-0.7-0.3-1.2-0.8-1.5
		c-0.4-0.3-1-0.4-1.8-0.4h-3.9L89.2,17.5L89.2,17.5z"/>
	<path class="st2" d="M103.3,11.9h2.4l4.7,8.4l4.7-8.4h2.4v12.8H115v-8h-0.1l-3.5,6.2h-2.1l-3.5-6.2l0,0v8h-2.5V11.9z"/>
	<path class="st2" d="M123.5,11.9h2.5v12.8h-2.5V11.9z"/>
	<path class="st2" d="M131.7,11.9h2.4l7.5,9.1l0,0v-9.1h2.5v12.8h-2.4l-7.5-9.1l0,0v9.1h-2.5V11.9z"/>
</g>
</svg>
